<svg width="16" height="16" viewBox="0 0 16 16" fill="none" xmlns="http://www.w3.org/2000/svg">
<path fill-rule="evenodd" clip-rule="evenodd" d="M3.19526 3.19526C3.45561 2.93491 3.87772 2.93491 4.13807 3.19526L8 7.05719L11.8619 3.19526C12.1223 2.93491 12.5444 2.93491 12.8047 3.19526C13.0651 3.45561 13.0651 3.87772 12.8047 4.13807L8.94281 8L12.8047 11.8619C13.0651 12.1223 13.0651 12.5444 12.8047 12.8047C12.5444 13.0651 12.1223 13.0651 11.8619 12.8047L8 8.94281L4.13807 12.8047C3.87772 13.0651 3.45561 13.0651 3.19526 12.8047C2.93491 12.5444 2.93491 12.1223 3.19526 11.8619L7.05719 8L3.19526 4.13807C2.93491 3.87772 2.93491 3.45561 3.19526 3.19526Z" fill="#333333"/>
</svg>
